<svg width="145" height="50" viewBox="0 0 145 50" fill="none" xmlns="http://www.w3.org/2000/svg">
<path d="M42.6007 1H15.1686L8.09096 13.2718M42.6007 1L28.9621 24.9741M42.6007 1L8.09096 13.2718M28.9621 24.9741L8.09096 13.2718M28.9621 24.9741H1.375M28.9621 24.9741L8.24595 36.9612M28.9621 24.9741L42.7557 49M28.9621 24.9741H144M8.09096 13.2718L1.375 24.9741M1.375 24.9741L8.24595 36.9612M42.7557 49H15.1169L8.24595 36.9612M42.7557 49L8.24595 36.9612" stroke="#F4F2EE" stroke-width="1.5" stroke-linecap="round"/>
<path d="M51.611 11.088V11.368C51.3123 11.3773 51.0837 11.4147 50.925 11.48C50.7757 11.536 50.673 11.648 50.617 11.816C50.561 11.9747 50.533 12.2267 50.533 12.572V19.516C50.533 19.852 50.561 20.104 50.617 20.272C50.673 20.44 50.7757 20.552 50.925 20.608C51.0837 20.664 51.3123 20.7013 51.611 20.72V21C51.3963 20.9813 51.1023 20.972 50.729 20.972C50.3557 20.9627 49.959 20.958 49.539 20.958C49.1843 20.958 48.8203 20.9627 48.447 20.972C48.083 20.972 47.7797 20.9813 47.537 21V20.72C47.845 20.7013 48.0737 20.664 48.223 20.608C48.3817 20.552 48.4843 20.44 48.531 20.272C48.587 20.104 48.615 19.852 48.615 19.516V12.572C48.615 12.2267 48.587 11.97 48.531 11.802C48.475 11.634 48.363 11.522 48.195 11.466C48.0363 11.4007 47.7983 11.368 47.481 11.368H45.759C45.4417 11.368 45.199 11.4007 45.031 11.466C44.8723 11.522 44.765 11.634 44.709 11.802C44.653 11.97 44.625 12.2267 44.625 12.572V19.516C44.625 19.852 44.653 20.104 44.709 20.272C44.765 20.44 44.8677 20.552 45.017 20.608C45.1757 20.664 45.4043 20.7013 45.703 20.72V21C45.4697 20.9813 45.171 20.972 44.807 20.972C44.443 20.9627 44.0743 20.958 43.701 20.958C43.281 20.958 42.889 20.9627 42.525 20.972C42.161 20.972 41.8623 20.9813 41.629 21V20.72C41.937 20.7013 42.1657 20.664 42.315 20.608C42.4737 20.552 42.5763 20.44 42.623 20.272C42.679 20.104 42.707 19.852 42.707 19.516V12.572C42.707 12.2267 42.679 11.9747 42.623 11.816C42.5763 11.648 42.4737 11.536 42.315 11.48C42.1657 11.4147 41.937 11.3773 41.629 11.368V11.088C41.8623 11.0973 42.161 11.1067 42.525 11.116C42.889 11.1253 43.281 11.13 43.701 11.13C44.2517 11.13 44.7977 11.1253 45.339 11.116C45.8803 11.0973 46.3143 11.088 46.641 11.088C46.9677 11.088 47.397 11.0973 47.929 11.116C48.461 11.1253 48.9977 11.13 49.539 11.13C49.959 11.13 50.3557 11.1253 50.729 11.116C51.1023 11.1067 51.3963 11.0973 51.611 11.088ZM57.4535 10.892C58.4055 10.892 59.2408 11.0927 59.9595 11.494C60.6782 11.8953 61.2335 12.474 61.6255 13.23C62.0268 13.9767 62.2275 14.8867 62.2275 15.96C62.2275 17.0053 62.0222 17.92 61.6115 18.704C61.2102 19.488 60.6455 20.0993 59.9175 20.538C59.1988 20.9767 58.3728 21.196 57.4395 21.196C56.4875 21.196 55.6522 20.9953 54.9335 20.594C54.2148 20.1927 53.6548 19.614 53.2535 18.858C52.8615 18.102 52.6655 17.192 52.6655 16.128C52.6655 15.0827 52.8708 14.168 53.2815 13.384C53.6922 12.6 54.2568 11.9887 54.9755 11.55C55.6942 11.1113 56.5202 10.892 57.4535 10.892ZM57.3975 11.144C56.8468 11.144 56.3662 11.354 55.9555 11.774C55.5542 12.194 55.2415 12.7727 55.0175 13.51C54.7935 14.2473 54.6815 15.1013 54.6815 16.072C54.6815 17.0613 54.8075 17.9247 55.0595 18.662C55.3115 19.39 55.6522 19.9547 56.0815 20.356C56.5108 20.748 56.9822 20.944 57.4955 20.944C58.0462 20.944 58.5222 20.734 58.9235 20.314C59.3342 19.894 59.6515 19.3153 59.8755 18.578C60.0995 17.8313 60.2115 16.9773 60.2115 16.016C60.2115 15.0173 60.0855 14.154 59.8335 13.426C59.5815 12.698 59.2408 12.138 58.8115 11.746C58.3915 11.3447 57.9202 11.144 57.3975 11.144ZM67.3456 11.088V11.368C67.0469 11.3773 66.8182 11.4147 66.6596 11.48C66.5102 11.536 66.4076 11.648 66.3516 11.816C66.2956 11.9747 66.2676 12.2267 66.2676 12.572V19.516C66.2676 19.852 66.2956 20.104 66.3516 20.272C66.4076 20.44 66.5102 20.552 66.6596 20.608C66.8182 20.664 67.0469 20.7013 67.3456 20.72V21C67.1122 20.9813 66.8136 20.972 66.4496 20.972C66.0856 20.9627 65.7169 20.958 65.3436 20.958C64.9236 20.958 64.5316 20.9627 64.1676 20.972C63.8036 20.972 63.5049 20.9813 63.2716 21V20.72C63.5796 20.7013 63.8082 20.664 63.9576 20.608C64.1162 20.552 64.2189 20.44 64.2656 20.272C64.3216 20.104 64.3496 19.852 64.3496 19.516V12.572C64.3496 12.2267 64.3216 11.9747 64.2656 11.816C64.2189 11.648 64.1162 11.536 63.9576 11.48C63.8082 11.4147 63.5796 11.3773 63.2716 11.368V11.088C63.5049 11.0973 63.8036 11.1067 64.1676 11.116C64.5316 11.1253 64.9236 11.13 65.3436 11.13C65.7169 11.13 66.0856 11.1253 66.4496 11.116C66.8136 11.1067 67.1122 11.0973 67.3456 11.088ZM66.8836 15.722C67.5462 15.722 68.1342 15.7733 68.6476 15.876C69.1609 15.9787 69.5809 16.1747 69.9076 16.464C70.2436 16.744 70.4676 17.1547 70.5796 17.696L70.9856 19.53C71.0789 19.922 71.1676 20.1973 71.2516 20.356C71.3449 20.5147 71.4849 20.5893 71.6716 20.58C71.8022 20.58 71.9142 20.5473 72.0076 20.482C72.1009 20.4073 72.1942 20.3093 72.2876 20.188L72.4836 20.356C72.2689 20.6267 72.0262 20.8367 71.7556 20.986C71.4942 21.126 71.1582 21.196 70.7476 21.196C70.2996 21.196 69.9216 21.098 69.6136 20.902C69.3149 20.6967 69.1049 20.2907 68.9836 19.684L68.6056 17.682C68.5309 17.2993 68.4329 16.982 68.3116 16.73C68.1902 16.478 68.0082 16.2913 67.7656 16.17C67.5229 16.0393 67.1729 15.974 66.7156 15.974H65.9456V15.722H66.8836ZM66.2396 15.974V15.722C66.6409 15.7033 66.9909 15.6007 67.2896 15.414C67.5976 15.2273 67.9102 14.952 68.2276 14.588L69.2216 13.342C69.5576 12.9313 69.7629 12.5813 69.8376 12.292C69.9216 12.0027 69.8796 11.7787 69.7116 11.62C69.5529 11.4613 69.2869 11.3773 68.9136 11.368V11.088C69.1282 11.0973 69.3336 11.1067 69.5296 11.116C69.7349 11.116 69.9449 11.1207 70.1596 11.13C70.3742 11.13 70.5982 11.13 70.8316 11.13C71.0929 11.13 71.3309 11.1253 71.5456 11.116C71.7602 11.1067 71.9469 11.0973 72.1056 11.088V11.368C71.8069 11.424 71.4989 11.5453 71.1816 11.732C70.8642 11.9093 70.5376 12.194 70.2016 12.586L67.4016 15.974H66.2396ZM73.17 11.088C73.4033 11.0973 73.702 11.1067 74.066 11.116C74.43 11.1253 74.794 11.13 75.158 11.13C75.6153 11.13 76.0493 11.1253 76.46 11.116C76.8707 11.1067 77.16 11.102 77.328 11.102C78.5787 11.102 79.5073 11.3587 80.114 11.872C80.73 12.3853 81.038 13.048 81.038 13.86C81.038 14.196 80.9773 14.5507 80.856 14.924C80.7347 15.288 80.5247 15.6287 80.226 15.946C79.9273 16.254 79.5167 16.506 78.994 16.702C78.4807 16.898 77.8227 16.996 77.02 16.996H75.62V16.716H76.88C77.468 16.716 77.916 16.59 78.224 16.338C78.5413 16.086 78.7513 15.7547 78.854 15.344C78.966 14.9333 79.022 14.49 79.022 14.014C79.022 13.1273 78.8773 12.4647 78.588 12.026C78.2987 11.5873 77.7993 11.368 77.09 11.368C76.7073 11.368 76.4553 11.4473 76.334 11.606C76.222 11.7647 76.166 12.0867 76.166 12.572V19.46C76.166 19.8147 76.2033 20.0807 76.278 20.258C76.3527 20.4353 76.4973 20.552 76.712 20.608C76.9267 20.664 77.2347 20.6967 77.636 20.706V21C77.3653 20.9813 77.0153 20.972 76.586 20.972C76.1567 20.9627 75.7133 20.958 75.256 20.958C74.864 20.958 74.486 20.9627 74.122 20.972C73.758 20.972 73.4407 20.9813 73.17 21V20.72C73.478 20.7013 73.7067 20.664 73.856 20.608C74.0147 20.552 74.1173 20.44 74.164 20.272C74.22 20.104 74.248 19.852 74.248 19.516V12.572C74.248 12.2267 74.22 11.9747 74.164 11.816C74.1173 11.648 74.0147 11.536 73.856 11.48C73.7067 11.4147 73.478 11.3773 73.17 11.368V11.088ZM86.807 10.892C87.759 10.892 88.5943 11.0927 89.313 11.494C90.0317 11.8953 90.587 12.474 90.979 13.23C91.3803 13.9767 91.581 14.8867 91.581 15.96C91.581 17.0053 91.3757 17.92 90.965 18.704C90.5637 19.488 89.999 20.0993 89.271 20.538C88.5523 20.9767 87.7263 21.196 86.793 21.196C85.841 21.196 85.0057 20.9953 84.287 20.594C83.5683 20.1927 83.0083 19.614 82.607 18.858C82.215 18.102 82.019 17.192 82.019 16.128C82.019 15.0827 82.2243 14.168 82.635 13.384C83.0457 12.6 83.6103 11.9887 84.329 11.55C85.0477 11.1113 85.8737 10.892 86.807 10.892ZM86.751 11.144C86.2003 11.144 85.7197 11.354 85.309 11.774C84.9077 12.194 84.595 12.7727 84.371 13.51C84.147 14.2473 84.035 15.1013 84.035 16.072C84.035 17.0613 84.161 17.9247 84.413 18.662C84.665 19.39 85.0057 19.9547 85.435 20.356C85.8643 20.748 86.3357 20.944 86.849 20.944C87.3997 20.944 87.8757 20.734 88.277 20.314C88.6877 19.894 89.005 19.3153 89.229 18.578C89.453 17.8313 89.565 16.9773 89.565 16.016C89.565 15.0173 89.439 14.154 89.187 13.426C88.935 12.698 88.5943 12.138 88.165 11.746C87.745 11.3447 87.2737 11.144 86.751 11.144ZM92.6251 11.088C92.8584 11.0973 93.1571 11.1067 93.5211 11.116C93.8851 11.1253 94.2491 11.13 94.6131 11.13C95.0704 11.13 95.5044 11.1253 95.9151 11.116C96.3258 11.1067 96.6151 11.102 96.7831 11.102C97.8844 11.102 98.7058 11.3073 99.2471 11.718C99.7978 12.1287 100.073 12.656 100.073 13.3C100.073 13.6267 99.9844 13.9533 99.8071 14.28C99.6391 14.6067 99.3638 14.9007 98.9811 15.162C98.6078 15.4233 98.1178 15.6193 97.5111 15.75V15.778C98.3324 15.8527 98.9811 16.0207 99.4571 16.282C99.9424 16.534 100.288 16.8373 100.493 17.192C100.698 17.5373 100.801 17.9013 100.801 18.284C100.801 18.8533 100.652 19.3433 100.353 19.754C100.064 20.1553 99.6438 20.4633 99.0931 20.678C98.5424 20.8927 97.8798 21 97.1051 21C96.8998 21 96.5871 20.9953 96.1671 20.986C95.7471 20.9673 95.2384 20.958 94.6411 20.958C94.2584 20.958 93.8851 20.9627 93.5211 20.972C93.1571 20.972 92.8584 20.9813 92.6251 21V20.72C92.9331 20.7013 93.1618 20.664 93.3111 20.608C93.4698 20.552 93.5724 20.44 93.6191 20.272C93.6751 20.104 93.7031 19.852 93.7031 19.516V12.572C93.7031 12.2267 93.6751 11.9747 93.6191 11.816C93.5724 11.648 93.4698 11.536 93.3111 11.48C93.1618 11.4147 92.9331 11.3773 92.6251 11.368V11.088ZM96.5451 11.368C96.1624 11.368 95.9104 11.4473 95.7891 11.606C95.6771 11.7647 95.6211 12.0867 95.6211 12.572V19.516C95.6211 19.8427 95.6491 20.09 95.7051 20.258C95.7611 20.426 95.8591 20.538 95.9991 20.594C96.1391 20.65 96.3444 20.678 96.6151 20.678C97.3804 20.678 97.9311 20.468 98.2671 20.048C98.6124 19.6187 98.7851 19.012 98.7851 18.228C98.7851 17.5093 98.5984 16.954 98.2251 16.562C97.8611 16.17 97.2544 15.974 96.4051 15.974H95.1311C95.1311 15.974 95.1311 15.9367 95.1311 15.862C95.1311 15.778 95.1311 15.736 95.1311 15.736H96.3351C96.8111 15.736 97.1798 15.6333 97.4411 15.428C97.7024 15.2133 97.8798 14.9333 97.9731 14.588C98.0664 14.2333 98.1131 13.8553 98.1131 13.454C98.1131 12.7633 97.9918 12.2453 97.7491 11.9C97.5064 11.5453 97.1051 11.368 96.5451 11.368ZM106.727 10.892C107.343 10.892 107.847 10.9853 108.239 11.172C108.64 11.3493 108.995 11.5593 109.303 11.802C109.49 11.942 109.63 11.9607 109.723 11.858C109.826 11.746 109.896 11.4893 109.933 11.088H110.255C110.236 11.4427 110.222 11.8767 110.213 12.39C110.204 12.9033 110.199 13.58 110.199 14.42H109.877C109.821 14 109.76 13.65 109.695 13.37C109.63 13.0807 109.536 12.8333 109.415 12.628C109.303 12.4227 109.144 12.2267 108.939 12.04C108.687 11.76 108.384 11.5547 108.029 11.424C107.684 11.284 107.32 11.214 106.937 11.214C106.452 11.214 106.027 11.3447 105.663 11.606C105.308 11.858 105.01 12.208 104.767 12.656C104.534 13.0947 104.356 13.608 104.235 14.196C104.123 14.784 104.067 15.4093 104.067 16.072C104.067 16.7533 104.128 17.388 104.249 17.976C104.38 18.5547 104.566 19.0633 104.809 19.502C105.061 19.9313 105.369 20.2673 105.733 20.51C106.106 20.7527 106.536 20.874 107.021 20.874C107.366 20.874 107.721 20.8087 108.085 20.678C108.449 20.5473 108.748 20.3467 108.981 20.076C109.289 19.796 109.499 19.4647 109.611 19.082C109.723 18.69 109.812 18.172 109.877 17.528H110.199C110.199 18.4053 110.204 19.1147 110.213 19.656C110.222 20.188 110.236 20.636 110.255 21H109.933C109.896 20.5987 109.83 20.3467 109.737 20.244C109.653 20.1413 109.508 20.1553 109.303 20.286C108.958 20.5287 108.589 20.7433 108.197 20.93C107.814 21.1073 107.32 21.196 106.713 21.196C105.761 21.196 104.926 20.9953 104.207 20.594C103.488 20.1927 102.928 19.614 102.527 18.858C102.135 18.102 101.939 17.192 101.939 16.128C101.939 15.0827 102.144 14.168 102.555 13.384C102.966 12.6 103.53 11.9887 104.249 11.55C104.968 11.1113 105.794 10.892 106.727 10.892ZM115.676 11.088V11.368C115.377 11.3773 115.148 11.4147 114.99 11.48C114.84 11.536 114.738 11.648 114.682 11.816C114.626 11.9747 114.598 12.2267 114.598 12.572V19.516C114.598 19.852 114.626 20.104 114.682 20.272C114.738 20.44 114.84 20.552 114.99 20.608C115.148 20.664 115.377 20.7013 115.676 20.72V21C115.442 20.9813 115.144 20.972 114.78 20.972C114.416 20.9627 114.047 20.958 113.674 20.958C113.254 20.958 112.862 20.9627 112.498 20.972C112.134 20.972 111.835 20.9813 111.602 21V20.72C111.91 20.7013 112.138 20.664 112.288 20.608C112.446 20.552 112.549 20.44 112.596 20.272C112.652 20.104 112.68 19.852 112.68 19.516V12.572C112.68 12.2267 112.652 11.9747 112.596 11.816C112.549 11.648 112.446 11.536 112.288 11.48C112.138 11.4147 111.91 11.3773 111.602 11.368V11.088C111.835 11.0973 112.134 11.1067 112.498 11.116C112.862 11.1253 113.254 11.13 113.674 11.13C114.047 11.13 114.416 11.1253 114.78 11.116C115.144 11.1067 115.442 11.0973 115.676 11.088ZM115.214 15.722C115.876 15.722 116.464 15.7733 116.978 15.876C117.491 15.9787 117.911 16.1747 118.238 16.464C118.574 16.744 118.798 17.1547 118.91 17.696L119.316 19.53C119.409 19.922 119.498 20.1973 119.582 20.356C119.675 20.5147 119.815 20.5893 120.002 20.58C120.132 20.58 120.244 20.5473 120.338 20.482C120.431 20.4073 120.524 20.3093 120.618 20.188L120.814 20.356C120.599 20.6267 120.356 20.8367 120.086 20.986C119.824 21.126 119.488 21.196 119.078 21.196C118.63 21.196 118.252 21.098 117.944 20.902C117.645 20.6967 117.435 20.2907 117.314 19.684L116.936 17.682C116.861 17.2993 116.763 16.982 116.642 16.73C116.52 16.478 116.338 16.2913 116.096 16.17C115.853 16.0393 115.503 15.974 115.046 15.974H114.276V15.722H115.214ZM114.57 15.974V15.722C114.971 15.7033 115.321 15.6007 115.62 15.414C115.928 15.2273 116.24 14.952 116.558 14.588L117.552 13.342C117.888 12.9313 118.093 12.5813 118.168 12.292C118.252 12.0027 118.21 11.7787 118.042 11.62C117.883 11.4613 117.617 11.3773 117.244 11.368V11.088C117.458 11.0973 117.664 11.1067 117.86 11.116C118.065 11.116 118.275 11.1207 118.49 11.13C118.704 11.13 118.928 11.13 119.162 11.13C119.423 11.13 119.661 11.1253 119.876 11.116C120.09 11.1067 120.277 11.0973 120.436 11.088V11.368C120.137 11.424 119.829 11.5453 119.512 11.732C119.194 11.9093 118.868 12.194 118.532 12.586L115.732 15.974H114.57ZM125.574 11.088V11.368C125.275 11.3773 125.047 11.4147 124.888 11.48C124.739 11.536 124.636 11.648 124.58 11.816C124.524 11.9747 124.496 12.2267 124.496 12.572V19.516C124.496 19.852 124.524 20.104 124.58 20.272C124.636 20.44 124.739 20.552 124.888 20.608C125.047 20.664 125.275 20.7013 125.574 20.72V21C125.341 20.9813 125.042 20.972 124.678 20.972C124.314 20.9627 123.945 20.958 123.572 20.958C123.152 20.958 122.76 20.9627 122.396 20.972C122.032 20.972 121.733 20.9813 121.5 21V20.72C121.808 20.7013 122.037 20.664 122.186 20.608C122.345 20.552 122.447 20.44 122.494 20.272C122.55 20.104 122.578 19.852 122.578 19.516V12.572C122.578 12.2267 122.55 11.9747 122.494 11.816C122.447 11.648 122.345 11.536 122.186 11.48C122.037 11.4147 121.808 11.3773 121.5 11.368V11.088C121.733 11.0973 122.032 11.1067 122.396 11.116C122.76 11.1253 123.152 11.13 123.572 11.13C123.945 11.13 124.314 11.1253 124.678 11.116C125.042 11.1067 125.341 11.0973 125.574 11.088ZM129.046 11.914C129.046 11.914 129.041 11.9653 129.032 12.068C129.032 12.1613 129.032 12.2593 129.032 12.362C129.032 12.4647 129.032 12.516 129.032 12.516L124.048 20.44L123.992 19.964L129.046 11.914ZM131.762 11.088V11.368C131.463 11.3773 131.235 11.4147 131.076 11.48C130.927 11.536 130.824 11.648 130.768 11.816C130.712 11.9747 130.684 12.2267 130.684 12.572V19.516C130.684 19.852 130.712 20.104 130.768 20.272C130.824 20.44 130.927 20.552 131.076 20.608C131.235 20.664 131.463 20.7013 131.762 20.72V21C131.547 20.9813 131.253 20.972 130.88 20.972C130.507 20.9627 130.11 20.958 129.69 20.958C129.335 20.958 128.971 20.9627 128.598 20.972C128.234 20.972 127.931 20.9813 127.688 21V20.72C127.996 20.7013 128.225 20.664 128.374 20.608C128.533 20.552 128.635 20.44 128.682 20.272C128.738 20.104 128.766 19.852 128.766 19.516V12.572C128.766 12.2267 128.738 11.9747 128.682 11.816C128.635 11.648 128.533 11.536 128.374 11.48C128.225 11.4147 127.996 11.3773 127.688 11.368V11.088C127.931 11.0973 128.234 11.1067 128.598 11.116C128.971 11.1253 129.335 11.13 129.69 11.13C130.11 11.13 130.507 11.1253 130.88 11.116C131.253 11.1067 131.547 11.0973 131.762 11.088ZM136.853 11.088V11.368C136.555 11.3773 136.326 11.4147 136.167 11.48C136.018 11.536 135.915 11.648 135.859 11.816C135.803 11.9747 135.775 12.2267 135.775 12.572V19.516C135.775 19.852 135.803 20.104 135.859 20.272C135.915 20.44 136.018 20.552 136.167 20.608C136.326 20.664 136.555 20.7013 136.853 20.72V21C136.62 20.9813 136.321 20.972 135.957 20.972C135.593 20.9627 135.225 20.958 134.851 20.958C134.431 20.958 134.039 20.9627 133.675 20.972C133.311 20.972 133.013 20.9813 132.779 21V20.72C133.087 20.7013 133.316 20.664 133.465 20.608C133.624 20.552 133.727 20.44 133.773 20.272C133.829 20.104 133.857 19.852 133.857 19.516V12.572C133.857 12.2267 133.829 11.9747 133.773 11.816C133.727 11.648 133.624 11.536 133.465 11.48C133.316 11.4147 133.087 11.3773 132.779 11.368V11.088C133.013 11.0973 133.311 11.1067 133.675 11.116C134.039 11.1253 134.431 11.13 134.851 11.13C135.225 11.13 135.593 11.1253 135.957 11.116C136.321 11.1067 136.62 11.0973 136.853 11.088ZM140.325 11.914C140.325 11.914 140.321 11.9653 140.311 12.068C140.311 12.1613 140.311 12.2593 140.311 12.362C140.311 12.4647 140.311 12.516 140.311 12.516L135.327 20.44L135.271 19.964L140.325 11.914ZM143.041 11.088V11.368C142.743 11.3773 142.514 11.4147 142.355 11.48C142.206 11.536 142.103 11.648 142.047 11.816C141.991 11.9747 141.963 12.2267 141.963 12.572V19.516C141.963 19.852 141.991 20.104 142.047 20.272C142.103 20.44 142.206 20.552 142.355 20.608C142.514 20.664 142.743 20.7013 143.041 20.72V21C142.827 20.9813 142.533 20.972 142.159 20.972C141.786 20.9627 141.389 20.958 140.969 20.958C140.615 20.958 140.251 20.9627 139.877 20.972C139.513 20.972 139.21 20.9813 138.967 21V20.72C139.275 20.7013 139.504 20.664 139.653 20.608C139.812 20.552 139.915 20.44 139.961 20.272C140.017 20.104 140.045 19.852 140.045 19.516V12.572C140.045 12.2267 140.017 11.9747 139.961 11.816C139.915 11.648 139.812 11.536 139.653 11.48C139.504 11.4147 139.275 11.3773 138.967 11.368V11.088C139.21 11.0973 139.513 11.1067 139.877 11.116C140.251 11.1253 140.615 11.13 140.969 11.13C141.389 11.13 141.786 11.1253 142.159 11.116C142.533 11.1067 142.827 11.0973 143.041 11.088ZM140.087 7.77C140.377 7.77 140.615 7.854 140.801 8.022C140.988 8.18067 141.081 8.39067 141.081 8.652C141.081 8.86667 141.011 9.058 140.871 9.226C140.741 9.38467 140.549 9.52933 140.297 9.66C140.036 9.8 139.705 9.92133 139.303 10.024C138.911 10.1173 138.454 10.164 137.931 10.164C137.399 10.164 136.933 10.1173 136.531 10.024C136.139 9.92133 135.813 9.8 135.551 9.66C135.309 9.52933 135.117 9.38467 134.977 9.226C134.847 9.058 134.781 8.86667 134.781 8.652C134.781 8.39067 134.87 8.18067 135.047 8.022C135.234 7.854 135.472 7.77 135.761 7.77C136.051 7.77 136.289 7.84933 136.475 8.008C136.671 8.16667 136.769 8.38133 136.769 8.652C136.769 8.88533 136.695 9.072 136.545 9.212C136.405 9.352 136.228 9.44533 136.013 9.492C136.181 9.59467 136.377 9.674 136.601 9.73C136.825 9.786 137.054 9.828 137.287 9.856C137.521 9.87467 137.735 9.884 137.931 9.884C138.118 9.884 138.328 9.87467 138.561 9.856C138.804 9.828 139.037 9.786 139.261 9.73C139.485 9.66467 139.681 9.58533 139.849 9.492C139.616 9.436 139.429 9.338 139.289 9.198C139.159 9.058 139.093 8.876 139.093 8.652C139.093 8.39067 139.187 8.18067 139.373 8.022C139.569 7.854 139.807 7.77 140.087 7.77Z" fill="#F4F2EE"/>
<path d="M59.578 29.088V29.368C59.2793 29.3773 59.0507 29.4147 58.892 29.48C58.7427 29.536 58.64 29.648 58.584 29.816C58.528 29.9747 58.5 30.2267 58.5 30.572V37.516C58.5 37.852 58.528 38.104 58.584 38.272C58.64 38.44 58.7427 38.552 58.892 38.608C59.0507 38.664 59.2793 38.7013 59.578 38.72V39C59.3447 38.9813 59.046 38.972 58.682 38.972C58.318 38.9627 57.9493 38.958 57.576 38.958C57.156 38.958 56.764 38.9627 56.4 38.972C56.036 38.972 55.7373 38.9813 55.504 39V38.72C55.812 38.7013 56.0407 38.664 56.19 38.608C56.3487 38.552 56.4513 38.44 56.498 38.272C56.554 38.104 56.582 37.852 56.582 37.516V30.572C56.582 30.2267 56.554 29.9747 56.498 29.816C56.4513 29.648 56.3487 29.536 56.19 29.48C56.0407 29.4147 55.812 29.3773 55.504 29.368V29.088C55.7373 29.0973 56.036 29.1067 56.4 29.116C56.764 29.1253 57.156 29.13 57.576 29.13C57.9493 29.13 58.318 29.1253 58.682 29.116C59.046 29.1067 59.3447 29.0973 59.578 29.088ZM59.116 33.722C59.7787 33.722 60.3667 33.7733 60.88 33.876C61.3933 33.9787 61.8133 34.1747 62.14 34.464C62.476 34.744 62.7 35.1547 62.812 35.696L63.218 37.53C63.3113 37.922 63.4 38.1973 63.484 38.356C63.5773 38.5147 63.7173 38.5893 63.904 38.58C64.0347 38.58 64.1467 38.5473 64.24 38.482C64.3333 38.4073 64.4267 38.3093 64.52 38.188L64.716 38.356C64.5013 38.6267 64.2587 38.8367 63.988 38.986C63.7267 39.126 63.3907 39.196 62.98 39.196C62.532 39.196 62.154 39.098 61.846 38.902C61.5473 38.6967 61.3373 38.2907 61.216 37.684L60.838 35.682C60.7633 35.2993 60.6653 34.982 60.544 34.73C60.4227 34.478 60.2407 34.2913 59.998 34.17C59.7553 34.0393 59.4053 33.974 58.948 33.974H58.178V33.722H59.116ZM58.472 33.974V33.722C58.8733 33.7033 59.2233 33.6007 59.522 33.414C59.83 33.2273 60.1427 32.952 60.46 32.588L61.454 31.342C61.79 30.9313 61.9953 30.5813 62.07 30.292C62.154 30.0027 62.112 29.7787 61.944 29.62C61.7853 29.4613 61.5193 29.3773 61.146 29.368V29.088C61.3607 29.0973 61.566 29.1067 61.762 29.116C61.9673 29.116 62.1773 29.1207 62.392 29.13C62.6067 29.13 62.8307 29.13 63.064 29.13C63.3253 29.13 63.5633 29.1253 63.778 29.116C63.9927 29.1067 64.1793 29.0973 64.338 29.088V29.368C64.0393 29.424 63.7313 29.5453 63.414 29.732C63.0967 29.9093 62.77 30.194 62.434 30.586L59.634 33.974H58.472ZM70.057 28.892C71.009 28.892 71.8443 29.0927 72.563 29.494C73.2817 29.8953 73.837 30.474 74.229 31.23C74.6303 31.9767 74.831 32.8867 74.831 33.96C74.831 35.0053 74.6257 35.92 74.215 36.704C73.8137 37.488 73.249 38.0993 72.521 38.538C71.8023 38.9767 70.9763 39.196 70.043 39.196C69.091 39.196 68.2557 38.9953 67.537 38.594C66.8183 38.1927 66.2583 37.614 65.857 36.858C65.465 36.102 65.269 35.192 65.269 34.128C65.269 33.0827 65.4743 32.168 65.885 31.384C66.2957 30.6 66.8603 29.9887 67.579 29.55C68.2977 29.1113 69.1237 28.892 70.057 28.892ZM70.001 29.144C69.4503 29.144 68.9697 29.354 68.559 29.774C68.1577 30.194 67.845 30.7727 67.621 31.51C67.397 32.2473 67.285 33.1013 67.285 34.072C67.285 35.0613 67.411 35.9247 67.663 36.662C67.915 37.39 68.2557 37.9547 68.685 38.356C69.1143 38.748 69.5857 38.944 70.099 38.944C70.6497 38.944 71.1257 38.734 71.527 38.314C71.9377 37.894 72.255 37.3153 72.479 36.578C72.703 35.8313 72.815 34.9773 72.815 34.016C72.815 33.0173 72.689 32.154 72.437 31.426C72.185 30.698 71.8443 30.138 71.415 29.746C70.995 29.3447 70.5237 29.144 70.001 29.144ZM84.7254 29.088V29.368C84.4081 29.3773 84.1654 29.4147 83.9974 29.48C83.8387 29.536 83.7314 29.648 83.6754 29.816C83.6194 29.9747 83.5914 30.2267 83.5914 30.572V37.516C83.5914 37.852 83.6194 38.104 83.6754 38.272C83.7314 38.44 83.8387 38.552 83.9974 38.608C84.1654 38.664 84.4081 38.7013 84.7254 38.72V39C84.5014 38.9813 84.1981 38.972 83.8154 38.972C83.4327 38.9627 83.0314 38.958 82.6114 38.958C82.1914 38.958 81.7761 38.9627 81.3654 38.972C80.9641 38.972 80.6327 38.9813 80.3714 39V38.72C80.7354 38.7013 81.0107 38.664 81.1974 38.608C81.3841 38.552 81.5101 38.44 81.5754 38.272C81.6407 38.104 81.6734 37.852 81.6734 37.516V30.572C81.6734 30.2267 81.6407 29.97 81.5754 29.802C81.5194 29.634 81.4167 29.522 81.2674 29.466C81.1274 29.4007 80.9221 29.368 80.6514 29.368H80.5254C80.2734 29.368 80.0774 29.4007 79.9374 29.466C79.7974 29.522 79.6947 29.6387 79.6294 29.816C79.5734 29.984 79.5314 30.236 79.5034 30.572C79.4567 31.1227 79.4101 31.7153 79.3634 32.35C79.3261 32.9847 79.2747 33.624 79.2094 34.268C79.1534 34.912 79.0647 35.528 78.9434 36.116C78.8221 36.704 78.6634 37.2313 78.4674 37.698C78.2714 38.1553 78.0194 38.5193 77.7114 38.79C77.4034 39.0607 77.0254 39.196 76.5774 39.196C76.1947 39.196 75.8587 39.0933 75.5694 38.888C75.2801 38.6827 75.1354 38.3933 75.1354 38.02C75.1354 37.6933 75.2427 37.432 75.4574 37.236C75.6814 37.04 75.9474 36.942 76.2554 36.942C76.5354 36.942 76.7594 37.012 76.9274 37.152C77.0954 37.292 77.1794 37.4833 77.1794 37.726C77.1794 38.0247 77.0907 38.2673 76.9134 38.454C76.7454 38.6407 76.5214 38.7807 76.2414 38.874C76.2974 38.8927 76.3534 38.9067 76.4094 38.916C76.4747 38.9253 76.5307 38.93 76.5774 38.93C77.0067 38.93 77.3661 38.7667 77.6554 38.44C77.9447 38.1133 78.1781 37.67 78.3554 37.11C78.5421 36.5407 78.6867 35.8967 78.7894 35.178C78.8921 34.4593 78.9714 33.708 79.0274 32.924C79.0834 32.1307 79.1347 31.3467 79.1814 30.572C79.2094 30.2453 79.1954 29.998 79.1394 29.83C79.0927 29.662 78.9807 29.5453 78.8034 29.48C78.6354 29.4147 78.3834 29.3773 78.0474 29.368V29.088C78.2434 29.0973 78.4767 29.1067 78.7474 29.116C79.0181 29.1253 79.2654 29.13 79.4894 29.13C79.7041 29.13 79.9094 29.1253 80.1054 29.116C80.3107 29.0973 80.5161 29.088 80.7214 29.088C81.0761 29.088 81.3981 29.0973 81.6874 29.116C81.9767 29.1253 82.3221 29.13 82.7234 29.13C82.9474 29.13 83.1807 29.13 83.4234 29.13C83.6754 29.1207 83.9181 29.116 84.1514 29.116C84.3847 29.1067 84.5761 29.0973 84.7254 29.088ZM94.6512 29.088V29.368C94.3338 29.3773 94.0912 29.4147 93.9232 29.48C93.7645 29.536 93.6572 29.648 93.6012 29.816C93.5452 29.9747 93.5172 30.2267 93.5172 30.572V37.516C93.5172 37.852 93.5452 38.104 93.6012 38.272C93.6572 38.44 93.7645 38.552 93.9232 38.608C94.0912 38.664 94.3338 38.7013 94.6512 38.72V39C94.4272 38.9813 94.1238 38.972 93.7412 38.972C93.3585 38.9627 92.9572 38.958 92.5372 38.958C92.1172 38.958 91.7018 38.9627 91.2912 38.972C90.8898 38.972 90.5585 38.9813 90.2972 39V38.72C90.6612 38.7013 90.9365 38.664 91.1232 38.608C91.3098 38.552 91.4358 38.44 91.5012 38.272C91.5665 38.104 91.5992 37.852 91.5992 37.516V30.572C91.5992 30.2267 91.5665 29.97 91.5012 29.802C91.4452 29.634 91.3425 29.522 91.1932 29.466C91.0532 29.4007 90.8478 29.368 90.5772 29.368H90.4512C90.1992 29.368 90.0032 29.4007 89.8632 29.466C89.7232 29.522 89.6205 29.6387 89.5552 29.816C89.4992 29.984 89.4572 30.236 89.4292 30.572C89.3825 31.1227 89.3358 31.7153 89.2892 32.35C89.2518 32.9847 89.2005 33.624 89.1352 34.268C89.0792 34.912 88.9905 35.528 88.8692 36.116C88.7478 36.704 88.5892 37.2313 88.3932 37.698C88.1972 38.1553 87.9452 38.5193 87.6372 38.79C87.3292 39.0607 86.9512 39.196 86.5032 39.196C86.1205 39.196 85.7845 39.0933 85.4952 38.888C85.2058 38.6827 85.0612 38.3933 85.0612 38.02C85.0612 37.6933 85.1685 37.432 85.3832 37.236C85.6072 37.04 85.8732 36.942 86.1812 36.942C86.4612 36.942 86.6852 37.012 86.8532 37.152C87.0212 37.292 87.1052 37.4833 87.1052 37.726C87.1052 38.0247 87.0165 38.2673 86.8392 38.454C86.6712 38.6407 86.4472 38.7807 86.1672 38.874C86.2232 38.8927 86.2792 38.9067 86.3352 38.916C86.4005 38.9253 86.4565 38.93 86.5032 38.93C86.9325 38.93 87.2918 38.7667 87.5812 38.44C87.8705 38.1133 88.1038 37.67 88.2812 37.11C88.4678 36.5407 88.6125 35.8967 88.7152 35.178C88.8178 34.4593 88.8972 33.708 88.9532 32.924C89.0092 32.1307 89.0605 31.3467 89.1072 30.572C89.1352 30.2453 89.1212 29.998 89.0652 29.83C89.0185 29.662 88.9065 29.5453 88.7292 29.48C88.5612 29.4147 88.3092 29.3773 87.9732 29.368V29.088C88.1692 29.0973 88.4025 29.1067 88.6732 29.116C88.9438 29.1253 89.1912 29.13 89.4152 29.13C89.6298 29.13 89.8352 29.1253 90.0312 29.116C90.2365 29.0973 90.4418 29.088 90.6472 29.088C91.0018 29.088 91.3238 29.0973 91.6132 29.116C91.9025 29.1253 92.2478 29.13 92.6492 29.13C92.8732 29.13 93.1065 29.13 93.3492 29.13C93.6012 29.1207 93.8438 29.116 94.0772 29.116C94.3105 29.1067 94.5018 29.0973 94.6512 29.088ZM102.953 29.088C102.916 29.4707 102.888 29.844 102.869 30.208C102.86 30.5627 102.855 30.8333 102.855 31.02C102.855 31.1973 102.86 31.37 102.869 31.538C102.878 31.6967 102.888 31.832 102.897 31.944H102.575C102.5 31.3 102.379 30.796 102.211 30.432C102.043 30.0587 101.814 29.7973 101.525 29.648C101.245 29.4893 100.876 29.41 100.419 29.41H99.649C99.369 29.41 99.1543 29.4333 99.005 29.48C98.8556 29.5267 98.753 29.6247 98.697 29.774C98.6503 29.9233 98.627 30.152 98.627 30.46V37.628C98.627 37.9267 98.6503 38.1553 98.697 38.314C98.753 38.4633 98.8556 38.5613 99.005 38.608C99.1543 38.6547 99.369 38.678 99.649 38.678H100.447C100.923 38.678 101.32 38.5893 101.637 38.412C101.964 38.2347 102.225 37.9453 102.421 37.544C102.617 37.1333 102.762 36.5733 102.855 35.864H103.177C103.149 36.1533 103.135 36.5267 103.135 36.984C103.135 37.18 103.14 37.4647 103.149 37.838C103.168 38.2113 103.196 38.5987 103.233 39C102.757 38.9813 102.22 38.972 101.623 38.972C101.026 38.9627 100.494 38.958 100.027 38.958C99.8123 38.958 99.5276 38.958 99.173 38.958C98.8276 38.958 98.4496 38.9627 98.039 38.972C97.6376 38.972 97.227 38.9767 96.807 38.986C96.3963 38.986 96.0043 38.9907 95.631 39V38.72C95.939 38.7013 96.1676 38.664 96.317 38.608C96.4756 38.552 96.5783 38.44 96.625 38.272C96.681 38.104 96.709 37.852 96.709 37.516V30.572C96.709 30.2267 96.681 29.9747 96.625 29.816C96.5783 29.648 96.4756 29.536 96.317 29.48C96.1676 29.4147 95.939 29.3773 95.631 29.368V29.088C96.0043 29.0973 96.3963 29.1067 96.807 29.116C97.227 29.116 97.6376 29.1207 98.039 29.13C98.4496 29.13 98.8276 29.13 99.173 29.13C99.5276 29.13 99.8123 29.13 100.027 29.13C100.456 29.13 100.942 29.13 101.483 29.13C102.034 29.1207 102.524 29.1067 102.953 29.088ZM100.699 33.876C100.699 33.876 100.699 33.9227 100.699 34.016C100.699 34.1093 100.699 34.156 100.699 34.156H98.207C98.207 34.156 98.207 34.1093 98.207 34.016C98.207 33.9227 98.207 33.876 98.207 33.876H100.699ZM101.105 32.028C101.068 32.56 101.049 32.966 101.049 33.246C101.058 33.526 101.063 33.7827 101.063 34.016C101.063 34.2493 101.068 34.506 101.077 34.786C101.086 35.066 101.11 35.472 101.147 36.004H100.825C100.778 35.6867 100.704 35.388 100.601 35.108C100.508 34.8187 100.354 34.59 100.139 34.422C99.9336 34.2447 99.635 34.156 99.243 34.156V33.876C99.5323 33.876 99.7656 33.8153 99.943 33.694C100.13 33.5727 100.279 33.4187 100.391 33.232C100.503 33.036 100.587 32.8353 100.643 32.63C100.708 32.4153 100.755 32.2147 100.783 32.028H101.105ZM112.305 29.088V29.368C111.988 29.3773 111.745 29.4147 111.577 29.48C111.418 29.536 111.311 29.648 111.255 29.816C111.199 29.9747 111.171 30.2267 111.171 30.572V37.516C111.171 37.852 111.199 38.1087 111.255 38.286C111.311 38.454 111.414 38.5707 111.563 38.636C111.722 38.692 111.95 38.72 112.249 38.72H112.683C112.646 39.0653 112.618 39.4013 112.599 39.728C112.59 40.064 112.585 40.316 112.585 40.484C112.585 40.6613 112.59 40.8247 112.599 40.974C112.608 41.1327 112.618 41.268 112.627 41.38H112.305C112.221 40.7827 112.09 40.3113 111.913 39.966C111.745 39.6207 111.512 39.3733 111.213 39.224C110.924 39.0747 110.55 39 110.093 39H106.495C106.038 39 105.66 39.0747 105.361 39.224C105.072 39.3733 104.843 39.6207 104.675 39.966C104.507 40.3113 104.376 40.7827 104.283 41.38H103.961C103.98 41.268 103.989 41.1327 103.989 40.974C103.998 40.8247 104.003 40.6613 104.003 40.484C104.003 40.316 103.994 40.064 103.975 39.728C103.966 39.4013 103.942 39.0653 103.905 38.72H108.119C108.436 38.72 108.674 38.692 108.833 38.636C109.001 38.5707 109.113 38.454 109.169 38.286C109.225 38.1087 109.253 37.852 109.253 37.516V30.572C109.253 30.2267 109.22 29.97 109.155 29.802C109.099 29.634 108.996 29.522 108.847 29.466C108.707 29.4007 108.502 29.368 108.231 29.368H108.049C107.806 29.368 107.62 29.4007 107.489 29.466C107.358 29.522 107.265 29.6387 107.209 29.816C107.153 29.984 107.111 30.236 107.083 30.572C107.036 31.104 106.99 31.678 106.943 32.294C106.906 32.91 106.854 33.5353 106.789 34.17C106.724 34.7953 106.63 35.3973 106.509 35.976C106.397 36.5453 106.243 37.0587 106.047 37.516C105.851 37.964 105.599 38.3233 105.291 38.594C104.983 38.8553 104.605 38.986 104.157 38.986V38.72C104.586 38.72 104.946 38.5613 105.235 38.244C105.524 37.9173 105.758 37.4787 105.935 36.928C106.122 36.3773 106.266 35.752 106.369 35.052C106.472 34.3427 106.551 33.6053 106.607 32.84C106.663 32.0747 106.714 31.3187 106.761 30.572C106.789 30.2453 106.775 29.998 106.719 29.83C106.672 29.662 106.56 29.5453 106.383 29.48C106.215 29.4147 105.963 29.3773 105.627 29.368V29.088C105.823 29.0973 106.056 29.1067 106.327 29.116C106.598 29.1253 106.845 29.13 107.069 29.13C107.284 29.13 107.489 29.1253 107.685 29.116C107.89 29.0973 108.096 29.088 108.301 29.088C108.656 29.088 108.978 29.0973 109.267 29.116C109.556 29.1253 109.902 29.13 110.303 29.13C110.527 29.13 110.76 29.13 111.003 29.13C111.255 29.1207 111.498 29.116 111.731 29.116C111.964 29.1067 112.156 29.0973 112.305 29.088ZM121.552 33.722C122.215 33.722 122.803 33.7733 123.316 33.876C123.839 33.9787 124.264 34.1747 124.59 34.464C124.917 34.744 125.141 35.1547 125.262 35.696L125.668 37.53C125.762 37.922 125.85 38.1973 125.934 38.356C126.028 38.5147 126.168 38.5893 126.354 38.58C126.485 38.58 126.592 38.5473 126.676 38.482C126.77 38.4073 126.868 38.3093 126.97 38.188L127.166 38.356C126.942 38.6267 126.7 38.8367 126.438 38.986C126.177 39.126 125.841 39.196 125.43 39.196C124.982 39.196 124.604 39.098 124.296 38.902C123.998 38.6967 123.788 38.2907 123.666 37.684L123.288 35.682C123.214 35.2993 123.116 34.982 122.994 34.73C122.873 34.478 122.686 34.2913 122.434 34.17C122.192 34.0393 121.842 33.974 121.384 33.974H120.628V33.722H121.552ZM126.746 29.088V29.368C126.448 29.424 126.14 29.5453 125.822 29.732C125.505 29.9093 125.178 30.194 124.842 30.586L122.084 33.974H120.922V33.722C121.184 33.7127 121.422 33.666 121.636 33.582C121.86 33.498 122.07 33.372 122.266 33.204C122.462 33.036 122.663 32.8307 122.868 32.588L123.862 31.342C124.208 30.9313 124.418 30.5813 124.492 30.292C124.567 30.0027 124.525 29.7787 124.366 29.62C124.208 29.4613 123.937 29.3773 123.554 29.368V29.088C123.769 29.0973 123.979 29.1067 124.184 29.116C124.39 29.116 124.595 29.1207 124.8 29.13C125.015 29.13 125.239 29.13 125.472 29.13C125.734 29.13 125.972 29.1253 126.186 29.116C126.401 29.1067 126.588 29.0973 126.746 29.088ZM122.028 29.088V29.368C121.73 29.3773 121.501 29.4147 121.342 29.48C121.193 29.536 121.09 29.648 121.034 29.816C120.978 29.9747 120.95 30.2267 120.95 30.572V37.516C120.95 37.852 120.974 38.104 121.02 38.272C121.076 38.44 121.184 38.552 121.342 38.608C121.501 38.664 121.73 38.7013 122.028 38.72V39C121.804 38.9813 121.506 38.972 121.132 38.972C120.768 38.9627 120.376 38.958 119.956 38.958C119.592 38.958 119.228 38.9627 118.864 38.972C118.5 38.972 118.197 38.9813 117.954 39V38.72C118.262 38.7013 118.491 38.664 118.64 38.608C118.799 38.552 118.902 38.44 118.948 38.272C119.004 38.104 119.032 37.852 119.032 37.516V30.572C119.032 30.2267 119.004 29.9747 118.948 29.816C118.902 29.648 118.799 29.536 118.64 29.48C118.491 29.4147 118.262 29.3773 117.954 29.368V29.088C118.197 29.0973 118.5 29.1067 118.864 29.116C119.228 29.1253 119.592 29.13 119.956 29.13C120.376 29.13 120.768 29.1253 121.132 29.116C121.506 29.1067 121.804 29.0973 122.028 29.088ZM116.428 29.088V29.368C116.055 29.3773 115.784 29.4613 115.616 29.62C115.458 29.7787 115.416 30.0027 115.49 30.292C115.574 30.5813 115.784 30.9313 116.12 31.342L117.114 32.588C117.329 32.8307 117.534 33.036 117.73 33.204C117.926 33.372 118.132 33.498 118.346 33.582C118.561 33.666 118.804 33.7127 119.074 33.722V33.974H117.912L115.14 30.586C114.814 30.194 114.487 29.9093 114.16 29.732C113.843 29.5453 113.535 29.424 113.236 29.368V29.088C113.395 29.0973 113.582 29.1067 113.796 29.116C114.02 29.1253 114.258 29.13 114.51 29.13C114.753 29.13 114.977 29.13 115.182 29.13C115.397 29.1207 115.602 29.116 115.798 29.116C116.004 29.1067 116.214 29.0973 116.428 29.088ZM119.368 33.722V33.974H118.598C118.141 33.974 117.786 34.0393 117.534 34.17C117.292 34.2913 117.11 34.478 116.988 34.73C116.876 34.982 116.778 35.2993 116.694 35.682L116.316 37.684C116.204 38.2907 115.994 38.6967 115.686 38.902C115.378 39.098 115 39.196 114.552 39.196C114.151 39.196 113.82 39.126 113.558 38.986C113.297 38.8367 113.05 38.6267 112.816 38.356L113.012 38.188C113.124 38.3093 113.222 38.4073 113.306 38.482C113.39 38.5473 113.498 38.58 113.628 38.58C113.824 38.5893 113.964 38.5147 114.048 38.356C114.142 38.1973 114.23 37.922 114.314 37.53L114.72 35.696C114.842 35.1547 115.066 34.744 115.392 34.464C115.728 34.1747 116.153 33.9787 116.666 33.876C117.18 33.7733 117.768 33.722 118.43 33.722H119.368Z" fill="#F4F2EE"/>
</svg>
